<?xml version="1.0" encoding="UTF-8"?>
<!DOCTYPE svg PUBLIC "-//W3C//DTD SVG 1.1//EN" "http://www.w3.org/Graphics/SVG/1.1/DTD/svg11.dtd">
<svg xmlns="http://www.w3.org/2000/svg" version="1.1" width="512px" height="512px" style="shape-rendering:geometricPrecision; text-rendering:geometricPrecision; image-rendering:optimizeQuality; fill-rule:evenodd; clip-rule:evenodd" xmlns:xlink="http://www.w3.org/1999/xlink">
<g><path style="opacity:0.987" fill="#000000" d="M 426.5,-0.5 C 429.833,-0.5 433.167,-0.5 436.5,-0.5C 438.151,0.970083 439.985,2.30342 442,3.5C 451.223,26.615 459.889,49.9483 468,73.5C 468.665,78.9966 466.832,83.4966 462.5,87C 344.987,130.394 227.32,173.394 109.5,216C 235.5,216.333 361.5,216.667 487.5,217C 492.876,219.04 496.043,222.873 497,228.5C 497.667,318.833 497.667,409.167 497,499.5C 496.36,505.133 493.526,509.133 488.5,511.5C 341.5,511.5 194.5,511.5 47.5,511.5C 44.1416,509.3 41.6416,506.3 40,502.5C 39.6667,411.833 39.3333,321.167 39,230.5C 29.9993,206.997 21.4993,183.33 13.5,159.5C 14.2105,156.327 15.3771,153.327 17,150.5C 21.1026,147.573 25.6026,145.407 30.5,144C 162.713,96.0988 294.713,47.9321 426.5,-0.5 Z M 381.5,44.5 C 382.239,44.369 382.906,44.5357 383.5,45C 380.875,60.2508 377.875,75.4174 374.5,90.5C 358.597,96.3705 342.763,102.371 327,108.5C 328.997,93.5144 331.33,78.5144 334,63.5C 334.903,62.2986 336.069,61.4652 337.5,61C 352.382,55.7659 367.048,50.2659 381.5,44.5 Z M 430.5,50.5 C 433.105,56.1309 435.438,61.9643 437.5,68C 434.129,69.0681 430.796,70.2347 427.5,71.5C 427.71,64.548 428.71,57.548 430.5,50.5 Z M 280.5,81.5 C 281.649,81.7911 282.316,82.6244 282.5,84C 279.894,98.4669 277.561,112.967 275.5,127.5C 259.384,132.761 243.384,138.428 227.5,144.5C 227.167,143.833 226.833,143.167 226.5,142.5C 229.268,127.893 231.601,113.226 233.5,98.5C 249.459,93.4048 265.125,87.7381 280.5,81.5 Z M 181.5,117.5 C 182.139,118.097 182.472,118.93 182.5,120C 180.208,134.587 177.541,149.087 174.5,163.5C 158.616,169.572 142.616,175.239 126.5,180.5C 128.782,165.474 131.282,150.474 134,135.5C 149.954,129.574 165.788,123.574 181.5,117.5 Z M 79.5,154.5 C 80.5,154.5 81.5,154.5 82.5,154.5C 80.0022,169.487 77.5022,184.487 75,199.5C 69.5118,202.448 63.8451,204.115 58,204.5C 53.8884,192.162 49.3884,179.996 44.5,168C 56.3835,163.766 68.0502,159.266 79.5,154.5 Z M 66.5,243.5 C 80.1707,243.333 93.8374,243.5 107.5,244C 99.7071,257.085 92.0405,270.251 84.5,283.5C 78.5368,284.496 72.5368,284.829 66.5,284.5C 66.5,270.833 66.5,257.167 66.5,243.5 Z M 161.5,243.5 C 178.846,243.167 196.179,243.5 213.5,244.5C 205.913,257.338 198.58,270.338 191.5,283.5C 174.167,284.833 156.833,284.833 139.5,283.5C 146.858,270.112 154.191,256.779 161.5,243.5 Z M 268.5,243.5 C 285.837,243.333 303.17,243.5 320.5,244C 312.581,257.17 304.914,270.503 297.5,284C 280.167,284.667 262.833,284.667 245.5,284C 253.558,270.716 261.225,257.216 268.5,243.5 Z M 374.5,243.5 C 391.846,243.167 409.179,243.5 426.5,244.5C 419.167,257.5 411.833,270.5 404.5,283.5C 387.167,284.833 369.833,284.833 352.5,283.5C 360.366,270.434 367.699,257.1 374.5,243.5 Z M 469.5,264.5 C 470.491,270.979 470.824,277.646 470.5,284.5C 466.486,284.666 462.486,284.499 458.5,284C 462.423,277.594 466.089,271.094 469.5,264.5 Z"/></g>
</svg>
