<?xml version="1.0" encoding="UTF-8"?>
<!DOCTYPE svg PUBLIC "-//W3C//DTD SVG 1.1//EN" "http://www.w3.org/Graphics/SVG/1.1/DTD/svg11.dtd">
<svg xmlns="http://www.w3.org/2000/svg" version="1.1" width="512px" height="512px" style="shape-rendering:geometricPrecision; text-rendering:geometricPrecision; image-rendering:optimizeQuality; fill-rule:evenodd; clip-rule:evenodd" xmlns:xlink="http://www.w3.org/1999/xlink">
<g><path style="opacity:0.955" fill="#000000" d="M 146.5,-0.5 C 156.5,-0.5 166.5,-0.5 176.5,-0.5C 219.533,6.69762 250.366,30.031 269,69.5C 285.966,114.746 279.3,156.079 249,193.5C 213.728,229.251 171.895,240.084 123.5,226C 79.2984,209.108 53.4651,177.275 46,130.5C 42.0288,80.6124 60.8621,42.1124 102.5,15C 116.378,7.20994 131.045,2.04327 146.5,-0.5 Z M 154.5,24.5 C 197.258,24.1157 227.758,43.1157 246,81.5C 259.95,122.201 251.117,157.035 219.5,186C 191.462,207.339 160.796,212.005 127.5,200C 93.9912,184.478 75.1579,158.311 71,121.5C 71.1958,74.5799 93.3624,43.4132 137.5,28C 143.265,26.6145 148.931,25.4478 154.5,24.5 Z"/></g>
<g><path style="opacity:0.943" fill="#000000" d="M 157.5,42.5 C 165.576,40.9521 171.076,43.9521 174,51.5C 174.5,68.4967 174.667,85.4967 174.5,102.5C 194.169,102.333 213.836,102.5 233.5,103C 244.493,107.644 246.826,114.977 240.5,125C 238.725,126.439 236.725,127.439 234.5,128C 209.167,128.667 183.833,128.667 158.5,128C 153.091,126.014 149.925,122.181 149,116.5C 148.333,95.5 148.333,74.5 149,53.5C 149.93,48.2826 152.763,44.6159 157.5,42.5 Z"/></g>
<g><path style="opacity:0.988" fill="#000000" d="M 426.5,511.5 C 344.833,511.5 263.167,511.5 181.5,511.5C 158.938,505.44 145.772,490.773 142,467.5C 141.5,393.501 141.333,319.501 141.5,245.5C 154.114,247.682 166.78,248.015 179.5,246.5C 179.333,319.167 179.5,391.834 180,464.5C 181.986,469.909 185.819,473.075 191.5,474C 266.5,474.667 341.5,474.667 416.5,474C 423,472.833 426.833,469 428,462.5C 428.167,407.167 428.333,351.833 428.5,296.5C 428.657,239.464 428.157,182.464 427,125.5C 424.736,120.617 420.902,118.117 415.5,118C 374.835,117.5 334.168,117.333 293.5,117.5C 293.553,104.923 291.886,92.59 288.5,80.5C 334.168,80.3333 379.835,80.5 425.5,81C 445.053,85.5533 457.886,97.3867 464,116.5C 465.659,235.124 465.992,353.79 465,472.5C 459.317,492.682 446.484,505.682 426.5,511.5 Z"/></g>
<g><path style="opacity:0.975" fill="#000000" d="M 235.5,227.5 C 282.835,227.333 330.168,227.5 377.5,228C 386.066,232.365 388.233,238.865 384,247.5C 382.457,249.378 380.624,250.878 378.5,252C 330.833,252.667 283.167,252.667 235.5,252C 227.628,247.902 225.461,241.735 229,233.5C 230.914,231.144 233.081,229.144 235.5,227.5 Z"/></g>
<g><path style="opacity:0.976" fill="#000000" d="M 235.5,302.5 C 283.168,302.333 330.834,302.5 378.5,303C 386.608,307.664 388.441,314.164 384,322.5C 382.269,324.617 380.102,326.117 377.5,327C 330.5,327.667 283.5,327.667 236.5,327C 228.33,323.157 225.83,316.991 229,308.5C 230.914,306.144 233.081,304.144 235.5,302.5 Z"/></g>
<g><path style="opacity:0.941" fill="#000000" d="M 237.5,379.5 C 283.835,379.333 330.168,379.5 376.5,380C 386.425,384.029 388.925,390.862 384,400.5C 381.742,402.43 379.242,403.93 376.5,405C 330.167,405.667 283.833,405.667 237.5,405C 226.944,400.438 224.777,393.271 231,383.5C 233.095,381.875 235.261,380.542 237.5,379.5 Z"/></g>
</svg>
